<svg xmlns="http://www.w3.org/2000/svg" xmlns:xlink="http://www.w3.org/1999/xlink" width="500" zoomAndPan="magnify" viewBox="0 0 375 374.999991" height="500" preserveAspectRatio="xMidYMid meet" version="1.0"><defs><clipPath id="f9cb703000"><path d="M 296 173 L 322.894531 173 L 322.894531 190 L 296 190 Z M 296 173 " clip-rule="nonzero"/></clipPath><clipPath id="53c4bbe4e3"><path d="M 84 38.363281 L 322.894531 38.363281 L 322.894531 116 L 84 116 Z M 84 38.363281 " clip-rule="nonzero"/></clipPath><clipPath id="bddf1b5501"><path d="M 52.144531 173 L 283 173 L 283 190 L 52.144531 190 Z M 52.144531 173 " clip-rule="nonzero"/></clipPath><clipPath id="b374285107"><path d="M 84 247 L 322.894531 247 L 322.894531 324.863281 L 84 324.863281 Z M 84 247 " clip-rule="nonzero"/></clipPath><clipPath id="7380c90e3f"><path d="M 260.773438 260.773438 L 337.273438 260.773438 L 337.273438 337.273438 L 260.773438 337.273438 Z M 260.773438 260.773438 " clip-rule="nonzero"/></clipPath></defs><path fill="#3871c1" d="M 243.136719 247.722656 C 243.136719 252.25 246.8125 255.917969 251.339844 255.917969 L 260.203125 255.917969 C 264.734375 255.917969 268.410156 252.25 268.410156 247.722656 C 268.410156 243.199219 264.734375 239.53125 260.203125 239.53125 L 251.339844 239.53125 C 246.8125 239.53125 243.136719 243.199219 243.136719 247.722656 " fill-opacity="1" fill-rule="nonzero"/><path fill="#3871c1" d="M 263.980469 107.308594 C 259.445312 107.308594 255.769531 110.976562 255.769531 115.503906 C 255.769531 120.027344 259.445312 123.699219 263.980469 123.699219 L 282.144531 123.699219 C 286.679688 123.699219 290.351562 120.027344 290.351562 115.503906 C 290.351562 110.976562 286.679688 107.308594 282.144531 107.308594 L 263.980469 107.308594 " fill-opacity="1" fill-rule="nonzero"/><g clip-path="url(#f9cb703000)"><path fill="#3871c1" d="M 304.636719 173.417969 C 300.105469 173.417969 296.429688 177.085938 296.429688 181.613281 C 296.429688 186.140625 300.105469 189.808594 304.636719 189.808594 L 314.597656 189.808594 C 319.128906 189.808594 322.804688 186.140625 322.804688 181.613281 C 322.804688 177.085938 319.128906 173.417969 314.597656 173.417969 L 304.636719 173.417969 " fill-opacity="1" fill-rule="nonzero"/></g><path fill="#00adef" d="M 225.34375 81.765625 C 225.34375 86.667969 229.328125 90.644531 234.238281 90.644531 C 239.148438 90.644531 243.128906 86.667969 243.128906 81.765625 C 243.128906 76.859375 239.148438 72.882812 234.238281 72.882812 C 229.328125 72.882812 225.34375 76.859375 225.34375 81.765625 " fill-opacity="1" fill-rule="nonzero"/><path fill="#00adef" d="M 225.34375 273.953125 C 220.8125 273.953125 217.136719 277.621094 217.136719 282.148438 C 217.136719 286.675781 220.8125 290.34375 225.34375 290.34375 C 229.878906 290.34375 233.554688 286.675781 233.554688 282.148438 C 233.554688 277.621094 229.878906 273.953125 225.34375 273.953125 " fill-opacity="1" fill-rule="nonzero"/><path fill="#00adef" d="M 251.339844 222.867188 C 255.875 222.867188 259.546875 219.195312 259.546875 214.667969 C 259.546875 210.140625 255.875 206.472656 251.339844 206.472656 C 246.8125 206.472656 243.136719 210.140625 243.136719 214.667969 C 243.136719 219.195312 246.8125 222.867188 251.339844 222.867188 " fill-opacity="1" fill-rule="nonzero"/><path fill="#00adef" d="M 282.148438 156.753906 C 286.679688 156.753906 290.351562 153.085938 290.351562 148.558594 C 290.351562 144.035156 286.679688 140.367188 282.148438 140.367188 C 277.613281 140.367188 273.941406 144.035156 273.941406 148.558594 C 273.941406 153.085938 277.613281 156.753906 282.148438 156.753906 " fill-opacity="1" fill-rule="nonzero"/><g clip-path="url(#53c4bbe4e3)"><path fill="#3871c1" d="M 209.074219 81.765625 C 209.074219 76.859375 205.089844 72.882812 200.179688 72.882812 L 138.042969 72.882812 C 158.691406 59.210938 183.460938 51.246094 210.097656 51.246094 C 258.226562 51.246094 300.269531 77.257812 322.90625 115.972656 C 316.136719 102.867188 307.402344 90.929688 296.847656 80.394531 C 283.691406 67.257812 268.367188 56.9375 251.296875 49.726562 C 233.609375 42.253906 214.835938 38.46875 195.496094 38.46875 C 176.152344 38.46875 157.378906 42.253906 139.695312 49.726562 C 126.027344 55.5 113.472656 63.265625 102.257812 72.882812 C 99.464844 75.273438 96.761719 77.777344 94.136719 80.394531 C 90.851562 83.679688 87.738281 87.09375 84.808594 90.644531 L 200.179688 90.644531 C 205.089844 90.644531 209.074219 86.667969 209.074219 81.765625 " fill-opacity="1" fill-rule="nonzero"/></g><path fill="#00adef" d="M 223.90625 115.503906 C 223.90625 110.976562 220.234375 107.3125 215.699219 107.3125 L 72.945312 107.3125 C 69.746094 112.5625 66.886719 118.03125 64.378906 123.699219 L 215.699219 123.699219 C 220.234375 123.699219 223.90625 120.03125 223.90625 115.503906 " fill-opacity="1" fill-rule="nonzero"/><path fill="#00adef" d="M 224.941406 247.722656 C 224.941406 243.199219 221.265625 239.527344 216.730469 239.527344 L 64.378906 239.527344 C 66.886719 245.199219 69.746094 250.664062 72.945312 255.917969 L 216.730469 255.917969 C 221.265625 255.917969 224.941406 252.25 224.941406 247.722656 " fill-opacity="1" fill-rule="nonzero"/><path fill="#3871c1" d="M 262.914062 148.558594 C 262.914062 144.03125 259.242188 140.367188 254.710938 140.367188 L 58.195312 140.367188 C 56.570312 145.75 55.273438 151.21875 54.304688 156.753906 L 254.710938 156.753906 C 259.242188 156.753906 262.914062 153.085938 262.914062 148.558594 " fill-opacity="1" fill-rule="nonzero"/><path fill="#3871c1" d="M 231.597656 214.667969 C 231.597656 210.140625 227.925781 206.472656 223.390625 206.472656 L 54.304688 206.472656 C 55.273438 212.011719 56.570312 217.476562 58.195312 222.863281 L 223.390625 222.863281 C 227.925781 222.863281 231.597656 219.195312 231.597656 214.667969 " fill-opacity="1" fill-rule="nonzero"/><g clip-path="url(#bddf1b5501)"><path fill="#00adef" d="M 282.148438 181.613281 C 282.148438 179.347656 281.230469 177.300781 279.742188 175.816406 C 278.257812 174.335938 276.207031 173.417969 273.9375 173.417969 L 52.386719 173.417969 C 52.230469 176.136719 52.15625 178.867188 52.15625 181.613281 C 52.15625 184.359375 52.230469 187.09375 52.386719 189.808594 L 273.9375 189.808594 C 278.472656 189.808594 282.148438 186.140625 282.148438 181.613281 " fill-opacity="1" fill-rule="nonzero"/></g><g clip-path="url(#b374285107)"><path fill="#3871c1" d="M 210.097656 311.980469 C 183.460938 311.980469 158.691406 304.019531 138.042969 290.34375 L 194.269531 290.34375 C 199.183594 290.34375 203.160156 286.367188 203.160156 281.464844 C 203.160156 276.5625 199.183594 272.582031 194.269531 272.582031 L 84.808594 272.582031 C 87.738281 276.132812 90.851562 279.546875 94.136719 282.832031 C 96.761719 285.449219 99.464844 287.953125 102.257812 290.34375 C 113.472656 299.960938 126.027344 307.726562 139.695312 313.5 C 157.378906 320.972656 176.152344 324.761719 195.496094 324.761719 C 214.835938 324.761719 233.609375 320.972656 251.296875 313.5 C 268.367188 306.289062 283.691406 295.972656 296.847656 282.832031 C 307.402344 272.296875 316.136719 260.363281 322.90625 247.257812 C 300.269531 285.96875 258.226562 311.980469 210.097656 311.980469 " fill-opacity="1" fill-rule="nonzero"/></g><g clip-path="url(#7380c90e3f)"><path fill="#e6e6e6" d="M 271.097656 337.273438 C 265.402344 337.273438 260.769531 332.640625 260.769531 326.945312 L 260.769531 271.097656 C 260.769531 265.402344 265.402344 260.769531 271.097656 260.769531 L 326.945312 260.769531 C 332.640625 260.769531 337.273438 265.402344 337.273438 271.097656 L 337.273438 326.945312 C 337.273438 332.640625 332.640625 337.273438 326.945312 337.273438 Z M 271.097656 337.273438 " fill-opacity="1" fill-rule="nonzero"/></g><path fill="#333333" d="M 326.945312 334.234375 L 271.097656 334.234375 C 267.070312 334.234375 263.808594 330.96875 263.808594 326.945312 L 263.808594 271.097656 C 263.808594 267.070312 267.070312 263.808594 271.097656 263.808594 L 326.945312 263.808594 C 330.972656 263.808594 334.234375 267.070312 334.234375 271.097656 L 334.234375 326.945312 C 334.234375 330.96875 330.972656 334.234375 326.945312 334.234375 Z M 326.945312 334.234375 " fill-opacity="1" fill-rule="nonzero"/><path fill="#e6e6e6" d="M 272.585938 287.671875 C 272.160156 287.671875 271.734375 287.492188 271.433594 287.144531 C 270.886719 286.507812 270.957031 285.550781 271.589844 285 L 278.699219 278.863281 L 271.589844 272.726562 C 270.957031 272.175781 270.886719 271.21875 271.433594 270.582031 C 271.984375 269.949219 272.941406 269.878906 273.578125 270.425781 L 282.015625 277.714844 C 282.351562 278.003906 282.542969 278.421875 282.542969 278.863281 C 282.542969 279.304688 282.351562 279.726562 282.015625 280.011719 L 273.578125 287.300781 C 273.289062 287.550781 272.9375 287.671875 272.585938 287.671875 Z M 272.585938 287.671875 " fill-opacity="1" fill-rule="nonzero"/><path fill="#e6e6e6" d="M 290.507812 287.671875 L 281.761719 287.671875 C 280.921875 287.671875 280.242188 286.992188 280.242188 286.152344 C 280.242188 285.3125 280.921875 284.632812 281.761719 284.632812 L 290.507812 284.632812 C 291.34375 284.632812 292.023438 285.3125 292.023438 286.152344 C 292.023438 286.992188 291.34375 287.671875 290.507812 287.671875 Z M 290.507812 287.671875 " fill-opacity="1" fill-rule="nonzero"/></svg>